<svg width="334" height="82" viewBox="0 0 334 82" fill="none" xmlns="http://www.w3.org/2000/svg">
<g filter="url(#filter0_d_70877_6383)">
<g filter="url(#filter1_d_70877_6383)">
<rect x="4" y="4" width="326" height="74" rx="20" fill="#2A3647" shape-rendering="crispEdges"/>
<path d="M36.5114 33.4545H38.5284L42.5625 40.2443H42.733L46.767 33.4545H48.7841L43.5284 42.0057V48H41.767V42.0057L36.5114 33.4545ZM53.7237 48.2273C52.7389 48.2273 51.8748 47.9929 51.1314 47.5241C50.3928 47.0554 49.8151 46.3996 49.3984 45.5568C48.9865 44.714 48.7805 43.7292 48.7805 42.6023C48.7805 41.4659 48.9865 40.474 49.3984 39.6264C49.8151 38.7789 50.3928 38.1207 51.1314 37.652C51.8748 37.1832 52.7389 36.9489 53.7237 36.9489C54.7086 36.9489 55.5703 37.1832 56.3089 37.652C57.0523 38.1207 57.63 38.7789 58.0419 39.6264C58.4586 40.474 58.6669 41.4659 58.6669 42.6023C58.6669 43.7292 58.4586 44.714 58.0419 45.5568C57.63 46.3996 57.0523 47.0554 56.3089 47.5241C55.5703 47.9929 54.7086 48.2273 53.7237 48.2273ZM53.7237 46.7216C54.4718 46.7216 55.0874 46.5298 55.5703 46.1463C56.0533 45.7628 56.4107 45.2585 56.6428 44.6335C56.8748 44.0085 56.9908 43.3314 56.9908 42.6023C56.9908 41.8731 56.8748 41.1937 56.6428 40.5639C56.4107 39.9342 56.0533 39.4252 55.5703 39.0369C55.0874 38.6487 54.4718 38.4545 53.7237 38.4545C52.9756 38.4545 52.3601 38.6487 51.8771 39.0369C51.3942 39.4252 51.0367 39.9342 50.8047 40.5639C50.5727 41.1937 50.4567 41.8731 50.4567 42.6023C50.4567 43.3314 50.5727 44.0085 50.8047 44.6335C51.0367 45.2585 51.3942 45.7628 51.8771 46.1463C52.3601 46.5298 52.9756 46.7216 53.7237 46.7216ZM68.1005 43.5398V37.0909H69.7766V48H68.1005V46.1534H67.9869C67.7312 46.7074 67.3335 47.1785 66.7937 47.5668C66.2539 47.9503 65.5721 48.142 64.7482 48.142C64.0664 48.142 63.4603 47.9929 62.93 47.6946C62.3997 47.3916 61.9831 46.937 61.68 46.331C61.377 45.7202 61.2255 44.9508 61.2255 44.0227V37.0909H62.9016V43.9091C62.9016 44.7045 63.1242 45.339 63.5692 45.8125C64.0191 46.286 64.592 46.5227 65.288 46.5227C65.7047 46.5227 66.1284 46.4162 66.5593 46.2031C66.9949 45.9901 67.3595 45.6634 67.6531 45.223C67.9513 44.7827 68.1005 44.2216 68.1005 43.5398ZM86.6534 37.0909C86.5682 36.3712 86.2225 35.8125 85.6165 35.4148C85.0104 35.017 84.267 34.8182 83.3864 34.8182C82.7424 34.8182 82.179 34.9223 81.696 35.1307C81.2178 35.339 80.8438 35.6255 80.5739 35.9901C80.3087 36.3546 80.1761 36.7689 80.1761 37.233C80.1761 37.6212 80.2685 37.955 80.4531 38.2344C80.6425 38.509 80.884 38.7386 81.1776 38.9233C81.4711 39.1032 81.7789 39.2524 82.1009 39.3707C82.4228 39.4844 82.7188 39.5767 82.9886 39.6477L84.4659 40.0455C84.8447 40.1449 85.2661 40.2822 85.7301 40.4574C86.1989 40.6326 86.6463 40.8717 87.0724 41.1747C87.5033 41.473 87.8584 41.8565 88.1378 42.3253C88.4171 42.794 88.5568 43.3693 88.5568 44.0511C88.5568 44.8371 88.3509 45.5473 87.9389 46.1818C87.5317 46.8163 86.9351 47.3205 86.1491 47.6946C85.3679 48.0687 84.4186 48.2557 83.3011 48.2557C82.2595 48.2557 81.3575 48.0876 80.5952 47.7514C79.8376 47.4152 79.241 46.9465 78.8054 46.3452C78.3745 45.7438 78.1307 45.0455 78.0739 44.25H79.892C79.9394 44.7992 80.1241 45.2538 80.446 45.6136C80.7727 45.9687 81.1847 46.2339 81.6818 46.4091C82.1837 46.5795 82.7235 46.6648 83.3011 46.6648C83.9735 46.6648 84.5772 46.5559 85.1122 46.3381C85.6473 46.1155 86.071 45.8078 86.3835 45.4148C86.696 45.017 86.8523 44.553 86.8523 44.0227C86.8523 43.5398 86.7173 43.1468 86.4474 42.8438C86.1776 42.5407 85.8224 42.2945 85.3821 42.1051C84.9418 41.9157 84.4659 41.75 83.9545 41.608L82.1648 41.0966C81.0284 40.7699 80.1288 40.3035 79.4659 39.6974C78.803 39.0914 78.4716 38.2983 78.4716 37.3182C78.4716 36.5038 78.6918 35.7936 79.1321 35.1875C79.5772 34.5767 80.1738 34.1032 80.9219 33.767C81.6747 33.4261 82.5152 33.2557 83.4432 33.2557C84.3807 33.2557 85.214 33.4238 85.9432 33.7599C86.6723 34.0914 87.25 34.5459 87.6761 35.1236C88.107 35.7012 88.3343 36.357 88.358 37.0909H86.6534ZM91.2255 48V37.0909H92.9016V48H91.2255ZM92.0778 35.2727C91.7511 35.2727 91.4693 35.1615 91.2326 34.9389C91.0006 34.7164 90.8846 34.4489 90.8846 34.1364C90.8846 33.8239 91.0006 33.5563 91.2326 33.3338C91.4693 33.1113 91.7511 33 92.0778 33C92.4045 33 92.6838 33.1113 92.9158 33.3338C93.1526 33.5563 93.271 33.8239 93.271 34.1364C93.271 34.4489 93.1526 34.7164 92.9158 34.9389C92.6838 35.1615 92.4045 35.2727 92.0778 35.2727ZM100.375 52.3182C99.5653 52.3182 98.8693 52.214 98.2869 52.0057C97.7045 51.8021 97.2192 51.5322 96.831 51.196C96.4474 50.8646 96.142 50.5095 95.9148 50.1307L97.25 49.1932C97.4015 49.392 97.5933 49.6193 97.8253 49.875C98.0573 50.1354 98.3745 50.3603 98.777 50.5497C99.1842 50.7438 99.7169 50.8409 100.375 50.8409C101.256 50.8409 101.982 50.6278 102.555 50.2017C103.128 49.7756 103.415 49.108 103.415 48.1989V45.983H103.273C103.15 46.1818 102.974 46.428 102.747 46.7216C102.525 47.0104 102.203 47.2685 101.781 47.4957C101.365 47.7183 100.801 47.8295 100.091 47.8295C99.2102 47.8295 98.4195 47.6212 97.7188 47.2045C97.0227 46.7879 96.4711 46.1818 96.0639 45.3864C95.6615 44.5909 95.4602 43.625 95.4602 42.4886C95.4602 41.3712 95.6567 40.3982 96.0497 39.5696C96.4427 38.7363 96.9896 38.0923 97.6903 37.6378C98.3911 37.1785 99.2008 36.9489 100.119 36.9489C100.83 36.9489 101.393 37.0672 101.81 37.304C102.231 37.536 102.553 37.8011 102.776 38.0994C103.003 38.393 103.178 38.6345 103.301 38.8239H103.472V37.0909H105.091V48.3125C105.091 49.25 104.878 50.0123 104.452 50.5994C104.03 51.1913 103.462 51.6245 102.747 51.8991C102.037 52.1785 101.246 52.3182 100.375 52.3182ZM100.318 46.3239C100.991 46.3239 101.559 46.17 102.023 45.8622C102.487 45.5545 102.839 45.1117 103.081 44.5341C103.322 43.9564 103.443 43.2652 103.443 42.4602C103.443 41.6742 103.325 40.9806 103.088 40.3793C102.851 39.7779 102.501 39.3068 102.037 38.9659C101.573 38.625 101 38.4545 100.318 38.4545C99.608 38.4545 99.0161 38.6345 98.5426 38.9943C98.0739 39.3542 97.7211 39.8371 97.4844 40.4432C97.2524 41.0492 97.1364 41.7216 97.1364 42.4602C97.1364 43.2178 97.2547 43.8878 97.4915 44.4702C97.733 45.0478 98.0881 45.5024 98.5568 45.8338C99.0303 46.1605 99.6174 46.3239 100.318 46.3239ZM109.835 41.4375V48H108.159V37.0909H109.778V38.7955H109.92C110.176 38.2415 110.564 37.7964 111.085 37.4602C111.606 37.1193 112.278 36.9489 113.102 36.9489C113.841 36.9489 114.487 37.1004 115.041 37.4034C115.595 37.7017 116.026 38.1562 116.334 38.767C116.642 39.3731 116.795 40.1402 116.795 41.0682V48H115.119V41.1818C115.119 40.3248 114.897 39.6572 114.452 39.179C114.007 38.696 113.396 38.4545 112.619 38.4545C112.084 38.4545 111.606 38.5705 111.185 38.8026C110.768 39.0346 110.439 39.3731 110.197 39.8182C109.956 40.2633 109.835 40.803 109.835 41.4375ZM124.432 48.2273C123.381 48.2273 122.474 47.9953 121.712 47.5312C120.954 47.0625 120.37 46.4091 119.958 45.571C119.551 44.7282 119.347 43.7481 119.347 42.6307C119.347 41.5133 119.551 40.5284 119.958 39.6761C120.37 38.8191 120.943 38.1515 121.676 37.6733C122.415 37.1903 123.277 36.9489 124.262 36.9489C124.83 36.9489 125.391 37.0436 125.945 37.233C126.499 37.4223 127.003 37.7301 127.458 38.1562C127.912 38.5777 128.275 39.1364 128.544 39.8324C128.814 40.5284 128.949 41.3854 128.949 42.4034V43.1136H120.54V41.6648H127.245C127.245 41.0492 127.122 40.5 126.875 40.017C126.634 39.5341 126.288 39.1529 125.838 38.8736C125.393 38.5942 124.868 38.4545 124.262 38.4545C123.594 38.4545 123.016 38.6203 122.529 38.9517C122.046 39.2784 121.674 39.7045 121.414 40.2301C121.153 40.7557 121.023 41.3191 121.023 41.9205V42.8864C121.023 43.7102 121.165 44.4086 121.449 44.9815C121.738 45.5497 122.138 45.983 122.65 46.2812C123.161 46.5748 123.755 46.7216 124.432 46.7216C124.873 46.7216 125.27 46.66 125.625 46.5369C125.985 46.4091 126.295 46.2197 126.556 45.9688C126.816 45.7131 127.017 45.3958 127.159 45.017L128.779 45.4716C128.608 46.0208 128.322 46.5038 127.919 46.9205C127.517 47.3324 127.02 47.6544 126.428 47.8864C125.836 48.1136 125.171 48.2273 124.432 48.2273ZM135.618 48.2273C134.709 48.2273 133.907 47.9976 133.211 47.5384C132.515 47.0743 131.97 46.4209 131.577 45.5781C131.184 44.7306 130.988 43.7292 130.988 42.5739C130.988 41.428 131.184 40.4337 131.577 39.5909C131.97 38.7481 132.517 38.0971 133.218 37.6378C133.918 37.1785 134.728 36.9489 135.647 36.9489C136.357 36.9489 136.918 37.0672 137.33 37.304C137.747 37.536 138.064 37.8011 138.282 38.0994C138.504 38.393 138.677 38.6345 138.8 38.8239H138.942V33.4545H140.618V48H138.999V46.3239H138.8C138.677 46.5227 138.502 46.7737 138.275 47.0767C138.047 47.375 137.723 47.6425 137.301 47.8793C136.88 48.1113 136.319 48.2273 135.618 48.2273ZM135.846 46.7216C136.518 46.7216 137.086 46.5464 137.55 46.196C138.014 45.8409 138.367 45.3509 138.608 44.7259C138.85 44.0961 138.971 43.3693 138.971 42.5455C138.971 41.7311 138.852 41.0185 138.615 40.4077C138.379 39.7921 138.028 39.3139 137.564 38.973C137.1 38.6274 136.527 38.4545 135.846 38.4545C135.135 38.4545 134.543 38.6368 134.07 39.0014C133.601 39.3613 133.248 39.8513 133.012 40.4716C132.78 41.0871 132.664 41.7784 132.664 42.5455C132.664 43.322 132.782 44.0275 133.019 44.6619C133.26 45.2917 133.615 45.7936 134.084 46.1676C134.558 46.5369 135.145 46.7216 135.846 46.7216ZM159.319 33.4545H161.08V43.0852C161.08 44.0795 160.846 44.9673 160.377 45.7486C159.913 46.5251 159.257 47.1383 158.409 47.5881C157.562 48.0331 156.568 48.2557 155.426 48.2557C154.285 48.2557 153.291 48.0331 152.444 47.5881C151.596 47.1383 150.938 46.5251 150.469 45.7486C150.005 44.9673 149.773 44.0795 149.773 43.0852V33.4545H151.534V42.9432C151.534 43.6534 151.691 44.2855 152.003 44.8395C152.316 45.3887 152.761 45.822 153.338 46.1392C153.921 46.4517 154.617 46.608 155.426 46.608C156.236 46.608 156.932 46.4517 157.515 46.1392C158.097 45.822 158.542 45.3887 158.85 44.8395C159.162 44.2855 159.319 43.6534 159.319 42.9432V33.4545ZM164.37 52.0909V37.0909H165.989V38.8239H166.188C166.311 38.6345 166.482 38.393 166.7 38.0994C166.922 37.8011 167.239 37.536 167.651 37.304C168.068 37.0672 168.631 36.9489 169.342 36.9489C170.26 36.9489 171.07 37.1785 171.771 37.6378C172.471 38.0971 173.018 38.7481 173.411 39.5909C173.804 40.4337 174.001 41.428 174.001 42.5739C174.001 43.7292 173.804 44.7306 173.411 45.5781C173.018 46.4209 172.474 47.0743 171.778 47.5384C171.082 47.9976 170.279 48.2273 169.37 48.2273C168.669 48.2273 168.108 48.1113 167.687 47.8793C167.265 47.6425 166.941 47.375 166.714 47.0767C166.487 46.7737 166.311 46.5227 166.188 46.3239H166.046V52.0909H164.37ZM166.018 42.5455C166.018 43.3693 166.138 44.0961 166.38 44.7259C166.621 45.3509 166.974 45.8409 167.438 46.196C167.902 46.5464 168.47 46.7216 169.143 46.7216C169.844 46.7216 170.428 46.5369 170.897 46.1676C171.371 45.7936 171.726 45.2917 171.962 44.6619C172.204 44.0275 172.325 43.322 172.325 42.5455C172.325 41.7784 172.206 41.0871 171.969 40.4716C171.737 39.8513 171.385 39.3613 170.911 39.0014C170.442 38.6368 169.853 38.4545 169.143 38.4545C168.461 38.4545 167.888 38.6274 167.424 38.973C166.96 39.3139 166.61 39.7921 166.373 40.4077C166.136 41.0185 166.018 41.7311 166.018 42.5455ZM189.91 39.5341L188.404 39.9602C188.309 39.7093 188.17 39.4654 187.985 39.2287C187.805 38.9872 187.559 38.7884 187.246 38.6321C186.934 38.4759 186.534 38.3977 186.046 38.3977C185.379 38.3977 184.822 38.5516 184.377 38.8594C183.937 39.1624 183.717 39.5483 183.717 40.017C183.717 40.4337 183.868 40.7628 184.171 41.0043C184.474 41.2457 184.948 41.447 185.592 41.608L187.211 42.0057C188.186 42.2424 188.913 42.6046 189.391 43.0923C189.87 43.5753 190.109 44.1979 190.109 44.9602C190.109 45.5852 189.929 46.1439 189.569 46.6364C189.214 47.1288 188.717 47.517 188.077 47.8011C187.438 48.0852 186.695 48.2273 185.847 48.2273C184.735 48.2273 183.814 47.9858 183.085 47.5028C182.355 47.0199 181.894 46.3144 181.7 45.3864L183.29 44.9886C183.442 45.5758 183.728 46.0161 184.15 46.3097C184.576 46.6032 185.132 46.75 185.819 46.75C186.6 46.75 187.22 46.5843 187.68 46.2528C188.144 45.9167 188.376 45.5142 188.376 45.0455C188.376 44.6667 188.243 44.3494 187.978 44.0938C187.713 43.8333 187.306 43.6392 186.756 43.5114L184.938 43.0852C183.939 42.8485 183.205 42.4815 182.737 41.9844C182.272 41.4825 182.04 40.8551 182.04 40.1023C182.04 39.4867 182.213 38.9422 182.559 38.4688C182.909 37.9953 183.385 37.6236 183.987 37.3537C184.593 37.0838 185.279 36.9489 186.046 36.9489C187.126 36.9489 187.973 37.1856 188.589 37.6591C189.209 38.1326 189.649 38.7576 189.91 39.5341ZM199.507 43.5398V37.0909H201.183V48H199.507V46.1534H199.393C199.137 46.7074 198.74 47.1785 198.2 47.5668C197.66 47.9503 196.978 48.142 196.154 48.142C195.473 48.142 194.867 47.9929 194.336 47.6946C193.806 47.3916 193.389 46.937 193.086 46.331C192.783 45.7202 192.632 44.9508 192.632 44.0227V37.0909H194.308V43.9091C194.308 44.7045 194.53 45.339 194.975 45.8125C195.425 46.286 195.998 46.5227 196.694 46.5227C197.111 46.5227 197.535 46.4162 197.966 46.2031C198.401 45.9901 198.766 45.6634 199.059 45.223C199.358 44.7827 199.507 44.2216 199.507 43.5398ZM208.685 48.2273C207.662 48.2273 206.781 47.9858 206.043 47.5028C205.304 47.0199 204.736 46.3546 204.338 45.5071C203.94 44.6596 203.741 43.6913 203.741 42.6023C203.741 41.4943 203.945 40.5166 204.352 39.669C204.764 38.8168 205.337 38.1515 206.071 37.6733C206.81 37.1903 207.671 36.9489 208.656 36.9489C209.423 36.9489 210.115 37.0909 210.73 37.375C211.346 37.6591 211.85 38.0568 212.243 38.5682C212.636 39.0795 212.88 39.6761 212.974 40.358H211.298C211.17 39.8608 210.886 39.4205 210.446 39.0369C210.01 38.6487 209.423 38.4545 208.685 38.4545C208.031 38.4545 207.458 38.625 206.966 38.9659C206.478 39.3021 206.097 39.7779 205.822 40.3935C205.553 41.0043 205.418 41.7216 205.418 42.5455C205.418 43.3883 205.55 44.1222 205.815 44.7472C206.085 45.3722 206.464 45.8575 206.952 46.2031C207.444 46.5488 208.022 46.7216 208.685 46.7216C209.12 46.7216 209.516 46.6458 209.871 46.4943C210.226 46.3428 210.527 46.125 210.773 45.8409C211.019 45.5568 211.194 45.2159 211.298 44.8182H212.974C212.88 45.4621 212.645 46.0421 212.271 46.5582C211.902 47.0696 211.412 47.4768 210.801 47.7798C210.195 48.0781 209.49 48.2273 208.685 48.2273ZM219.857 48.2273C218.834 48.2273 217.953 47.9858 217.214 47.5028C216.476 47.0199 215.908 46.3546 215.51 45.5071C215.112 44.6596 214.913 43.6913 214.913 42.6023C214.913 41.4943 215.117 40.5166 215.524 39.669C215.936 38.8168 216.509 38.1515 217.243 37.6733C217.982 37.1903 218.843 36.9489 219.828 36.9489C220.595 36.9489 221.286 37.0909 221.902 37.375C222.518 37.6591 223.022 38.0568 223.415 38.5682C223.808 39.0795 224.052 39.6761 224.146 40.358H222.47C222.342 39.8608 222.058 39.4205 221.618 39.0369C221.182 38.6487 220.595 38.4545 219.857 38.4545C219.203 38.4545 218.63 38.625 218.138 38.9659C217.65 39.3021 217.269 39.7779 216.994 40.3935C216.724 41.0043 216.589 41.7216 216.589 42.5455C216.589 43.3883 216.722 44.1222 216.987 44.7472C217.257 45.3722 217.636 45.8575 218.124 46.2031C218.616 46.5488 219.194 46.7216 219.857 46.7216C220.292 46.7216 220.688 46.6458 221.043 46.4943C221.398 46.3428 221.698 46.125 221.945 45.8409C222.191 45.5568 222.366 45.2159 222.47 44.8182H224.146C224.052 45.4621 223.817 46.0421 223.443 46.5582C223.074 47.0696 222.584 47.4768 221.973 47.7798C221.367 48.0781 220.661 48.2273 219.857 48.2273ZM231.17 48.2273C230.119 48.2273 229.213 47.9953 228.45 47.5312C227.693 47.0625 227.108 46.4091 226.696 45.571C226.289 44.7282 226.085 43.7481 226.085 42.6307C226.085 41.5133 226.289 40.5284 226.696 39.6761C227.108 38.8191 227.681 38.1515 228.415 37.6733C229.153 37.1903 230.015 36.9489 231 36.9489C231.568 36.9489 232.129 37.0436 232.683 37.233C233.237 37.4223 233.741 37.7301 234.196 38.1562C234.651 38.5777 235.013 39.1364 235.283 39.8324C235.553 40.5284 235.688 41.3854 235.688 42.4034V43.1136H227.278V41.6648H233.983C233.983 41.0492 233.86 40.5 233.614 40.017C233.372 39.5341 233.027 39.1529 232.577 38.8736C232.132 38.5942 231.606 38.4545 231 38.4545C230.332 38.4545 229.755 38.6203 229.267 38.9517C228.784 39.2784 228.412 39.7045 228.152 40.2301C227.892 40.7557 227.761 41.3191 227.761 41.9205V42.8864C227.761 43.7102 227.903 44.4086 228.188 44.9815C228.476 45.5497 228.876 45.983 229.388 46.2812C229.899 46.5748 230.493 46.7216 231.17 46.7216C231.611 46.7216 232.009 46.66 232.364 46.5369C232.723 46.4091 233.034 46.2197 233.294 45.9688C233.554 45.7131 233.756 45.3958 233.898 45.017L235.517 45.4716C235.347 46.0208 235.06 46.5038 234.658 46.9205C234.255 47.3324 233.758 47.6544 233.166 47.8864C232.574 48.1136 231.909 48.2273 231.17 48.2273ZM245.964 39.5341L244.459 39.9602C244.364 39.7093 244.224 39.4654 244.04 39.2287C243.86 38.9872 243.614 38.7884 243.301 38.6321C242.989 38.4759 242.589 38.3977 242.101 38.3977C241.433 38.3977 240.877 38.5516 240.432 38.8594C239.991 39.1624 239.771 39.5483 239.771 40.017C239.771 40.4337 239.923 40.7628 240.226 41.0043C240.529 41.2457 241.002 41.447 241.646 41.608L243.266 42.0057C244.241 42.2424 244.968 42.6046 245.446 43.0923C245.924 43.5753 246.163 44.1979 246.163 44.9602C246.163 45.5852 245.983 46.1439 245.624 46.6364C245.268 47.1288 244.771 47.517 244.132 47.8011C243.493 48.0852 242.75 48.2273 241.902 48.2273C240.789 48.2273 239.868 47.9858 239.139 47.5028C238.41 47.0199 237.948 46.3144 237.754 45.3864L239.345 44.9886C239.497 45.5758 239.783 46.0161 240.205 46.3097C240.631 46.6032 241.187 46.75 241.874 46.75C242.655 46.75 243.275 46.5843 243.734 46.2528C244.198 45.9167 244.43 45.5142 244.43 45.0455C244.43 44.6667 244.298 44.3494 244.033 44.0938C243.768 43.8333 243.36 43.6392 242.811 43.5114L240.993 43.0852C239.994 42.8485 239.26 42.4815 238.791 41.9844C238.327 41.4825 238.095 40.8551 238.095 40.1023C238.095 39.4867 238.268 38.9422 238.614 38.4688C238.964 37.9953 239.44 37.6236 240.041 37.3537C240.647 37.0838 241.334 36.9489 242.101 36.9489C243.18 36.9489 244.028 37.1856 244.643 37.6591C245.264 38.1326 245.704 38.7576 245.964 39.5341ZM256.414 39.5341L254.908 39.9602C254.813 39.7093 254.674 39.4654 254.489 39.2287C254.309 38.9872 254.063 38.7884 253.75 38.6321C253.438 38.4759 253.038 38.3977 252.55 38.3977C251.882 38.3977 251.326 38.5516 250.881 38.8594C250.441 39.1624 250.221 39.5483 250.221 40.017C250.221 40.4337 250.372 40.7628 250.675 41.0043C250.978 41.2457 251.452 41.447 252.096 41.608L253.715 42.0057C254.69 42.2424 255.417 42.6046 255.895 43.0923C256.373 43.5753 256.613 44.1979 256.613 44.9602C256.613 45.5852 256.433 46.1439 256.073 46.6364C255.718 47.1288 255.221 47.517 254.581 47.8011C253.942 48.0852 253.199 48.2273 252.351 48.2273C251.239 48.2273 250.318 47.9858 249.588 47.5028C248.859 47.0199 248.398 46.3144 248.203 45.3864L249.794 44.9886C249.946 45.5758 250.232 46.0161 250.654 46.3097C251.08 46.6032 251.636 46.75 252.323 46.75C253.104 46.75 253.724 46.5843 254.184 46.2528C254.648 45.9167 254.88 45.5142 254.88 45.0455C254.88 44.6667 254.747 44.3494 254.482 44.0938C254.217 43.8333 253.81 43.6392 253.26 43.5114L251.442 43.0852C250.443 42.8485 249.709 42.4815 249.24 41.9844C248.776 41.4825 248.544 40.8551 248.544 40.1023C248.544 39.4867 248.717 38.9422 249.063 38.4688C249.413 37.9953 249.889 37.6236 250.49 37.3537C251.096 37.0838 251.783 36.9489 252.55 36.9489C253.63 36.9489 254.477 37.1856 255.093 37.6591C255.713 38.1326 256.153 38.7576 256.414 39.5341ZM263.994 37.0909V38.5114H258.113V37.0909H263.994ZM259.874 48V35.5852C259.874 34.9602 260.021 34.4394 260.315 34.0227C260.608 33.6061 260.989 33.2936 261.458 33.0852C261.927 32.8769 262.422 32.7727 262.942 32.7727C263.354 32.7727 263.691 32.8059 263.951 32.8722C264.211 32.9384 264.406 33 264.533 33.0568L264.05 34.5057C263.965 34.4773 263.847 34.4418 263.695 34.3991C263.549 34.3565 263.354 34.3352 263.113 34.3352C262.559 34.3352 262.159 34.4749 261.913 34.7543C261.671 35.0336 261.55 35.4432 261.55 35.983V48H259.874ZM273.218 43.5398V37.0909H274.894V48H273.218V46.1534H273.104C272.848 46.7074 272.451 47.1785 271.911 47.5668C271.371 47.9503 270.689 48.142 269.865 48.142C269.184 48.142 268.578 47.9929 268.047 47.6946C267.517 47.3916 267.1 46.937 266.797 46.331C266.494 45.7202 266.343 44.9508 266.343 44.0227V37.0909H268.019V43.9091C268.019 44.7045 268.241 45.339 268.686 45.8125C269.136 46.286 269.709 46.5227 270.405 46.5227C270.822 46.5227 271.246 46.4162 271.676 46.2031C272.112 45.9901 272.477 45.6634 272.77 45.223C273.069 44.7827 273.218 44.2216 273.218 43.5398ZM279.64 33.4545V48H277.964V33.4545H279.64ZM284.386 33.4545V48H282.71V33.4545H284.386ZM288.536 52.0909C288.251 52.0909 287.998 52.0672 287.776 52.0199C287.553 51.9773 287.399 51.9347 287.314 51.892L287.74 50.4148C288.147 50.5189 288.507 50.5568 288.82 50.5284C289.132 50.5 289.409 50.3603 289.651 50.1094C289.897 49.8632 290.122 49.4631 290.325 48.9091L290.638 48.0568L286.604 37.0909H288.422L291.433 45.7841H291.547L294.558 37.0909H296.376L291.746 49.5909C291.537 50.1544 291.279 50.6207 290.972 50.9901C290.664 51.3641 290.306 51.6411 289.899 51.821C289.497 52.0009 289.042 52.0909 288.536 52.0909Z" fill="white"/>
</g>
</g>
<defs>
<filter id="filter0_d_70877_6383" x="0" y="0" width="334" height="82" filterUnits="userSpaceOnUse" color-interpolation-filters="sRGB">
<feFlood flood-opacity="0" result="BackgroundImageFix"/>
<feColorMatrix in="SourceAlpha" type="matrix" values="0 0 0 0 0 0 0 0 0 0 0 0 0 0 0 0 0 0 127 0" result="hardAlpha"/>
<feOffset/>
<feGaussianBlur stdDeviation="2"/>
<feColorMatrix type="matrix" values="0 0 0 0 0 0 0 0 0 0 0 0 0 0 0 0 0 0 0.1 0"/>
<feBlend mode="normal" in2="BackgroundImageFix" result="effect1_dropShadow_70877_6383"/>
<feBlend mode="normal" in="SourceGraphic" in2="effect1_dropShadow_70877_6383" result="shape"/>
</filter>
<filter id="filter1_d_70877_6383" x="0" y="0" width="334" height="82" filterUnits="userSpaceOnUse" color-interpolation-filters="sRGB">
<feFlood flood-opacity="0" result="BackgroundImageFix"/>
<feColorMatrix in="SourceAlpha" type="matrix" values="0 0 0 0 0 0 0 0 0 0 0 0 0 0 0 0 0 0 127 0" result="hardAlpha"/>
<feOffset/>
<feGaussianBlur stdDeviation="2"/>
<feComposite in2="hardAlpha" operator="out"/>
<feColorMatrix type="matrix" values="0 0 0 0 0 0 0 0 0 0 0 0 0 0 0 0 0 0 0.15 0"/>
<feBlend mode="normal" in2="BackgroundImageFix" result="effect1_dropShadow_70877_6383"/>
<feBlend mode="normal" in="SourceGraphic" in2="effect1_dropShadow_70877_6383" result="shape"/>
</filter>
</defs>
</svg>
